<svg xmlns="http://www.w3.org/2000/svg" width="19.002" height="22" viewBox="0 0 19.002 22">
  <path id="Subtraction_1" data-name="Subtraction 1" d="M14368,16475a2,2,0,0,1-2-2h4A2,2,0,0,1,14368,16475Zm9-3h-18v-1l2-1v-7a6.952,6.952,0,0,1,1.42-4.229,7.033,7.033,0,0,1,3.579-2.482,2.85,2.85,0,0,1,0-.289,2,2,0,1,1,4,0c0,.094,0,.189,0,.289a7.037,7.037,0,0,1,3.579,2.482,6.952,6.952,0,0,1,1.42,4.229v7l2,1v1Zm-9-14.582a5.424,5.424,0,0,0-5.487,5.346v7.488h10.974v-7.488A5.424,5.424,0,0,0,14368,16457.416Z" transform="translate(-14358.499 -16453.5)" fill="#b8b5b5" stroke="rgba(0,0,0,0)" stroke-width="1"/>
</svg>
